<svg xmlns="http://www.w3.org/2000/svg" viewBox="0 0 1200 900" role="img" aria-labelledby="title desc">
  <title id="title">Archive Room</title>
  <desc id="desc">Digital archive interface artwork with image panels and metadata rails.</desc>
  <rect width="1200" height="900" fill="#dfe5dd"/>
  <rect x="70" y="70" width="1060" height="760" fill="#f7f4ea" stroke="#161616" stroke-width="8"/>
  <rect x="110" y="120" width="230" height="660" fill="#17201d"/>
  <rect x="382" y="120" width="308" height="260" fill="#b34d35"/>
  <rect x="722" y="120" width="368" height="260" fill="#2558a7"/>
  <rect x="382" y="420" width="210" height="360" fill="#e0b33f"/>
  <rect x="622" y="420" width="468" height="170" fill="#2b6f64"/>
  <rect x="622" y="620" width="468" height="160" fill="#171717"/>
  <path d="M144 170h154v18H144zm0 58h118v18H144zm0 58h154v18H144zm0 58h96v18H144zm0 330h154v18H144zm0 44h118v18H144z" fill="#f7f4ea"/>
  <circle cx="885" cy="250" r="84" fill="#f7f4ea"/>
  <path d="M666 486h356v22H666zm0 54h284v22H666zm0 136h310v22H666zm0 48h228v22H666z" fill="#f7f4ea"/>
</svg>
