<svg width="48" height="48" viewBox="0 0 48 48" fill="none" xmlns="http://www.w3.org/2000/svg">
<path d="M8.55001 25.2796C8.55001 23.608 8.0727 21.5786 7.42728 19.5986C6.28286 16.0877 9.02957 12.161 12.695 12.6086C19.8722 13.485 27.1279 13.5062 34.31 12.6718L34.9359 12.5991C38.787 12.1516 41.6481 16.2532 40.475 19.9485C39.8756 21.8364 39.4422 23.7356 39.4422 25.2796C39.4422 26.9365 39.801 28.9147 40.281 30.8196C41.1314 34.1945 38.4366 37.684 34.9826 37.256L34.3273 37.1748C27.1373 36.2839 19.8633 36.3081 12.6794 37.2469C9.39915 37.6755 6.819 34.3447 7.64693 31.1419C8.15879 29.1618 8.55001 27.0645 8.55001 25.2796Z" stroke="white" stroke-width="5"/>
<path d="M23.9961 29.6343L14.5535 18.4622L23.9961 23.5898L33.4302 18.4622L23.9961 29.6343Z" fill="white"/>
</svg>
