<svg width="1332" height="286" viewBox="0 0 1332 286" fill="none" xmlns="http://www.w3.org/2000/svg">
<path d="M948.729 33.2811C948.793 33.3289 948.976 33.3528 949.278 33.3528C949.581 33.3528 949.812 33.2334 949.971 32.9946C950.13 32.7558 950.209 32.3658 950.209 31.8246V30.0099C950.209 29.4368 950.138 29.0309 949.995 28.7921C949.867 28.5374 949.644 28.41 949.326 28.41C949.024 28.41 948.817 28.4419 948.705 28.5056C948.721 28.5852 948.729 28.7205 948.729 28.9115V33.2811ZM949.326 44.074V47.7273C948.626 48.3163 947.639 48.8018 946.365 49.1838C945.092 49.55 943.762 49.733 942.378 49.733C940.404 49.733 938.788 49.351 937.53 48.5869C936.098 47.7114 935.381 46.4458 935.381 44.7903V22.1063C935.381 21.5969 935.724 21.0875 936.408 20.5781C937.108 20.0687 938.072 19.6071 939.297 19.1932C941.924 18.3017 944.924 17.856 948.299 17.856C952.963 17.856 956.68 19.0181 959.45 21.3422C962.22 23.6663 963.605 26.7943 963.605 30.7262C963.605 34.6422 962.355 37.6906 959.856 39.8714C957.452 41.9409 954.117 42.9756 949.851 42.9756C948.88 42.9756 947.838 42.8641 946.723 42.6413C945.625 42.4025 944.885 42.1956 944.503 42.0205C944.375 42.1478 944.312 42.3229 944.312 42.5458C944.312 43.3576 945.983 43.867 949.326 44.074ZM972.225 49.6136C970.331 49.6136 968.818 49.2714 967.688 48.5869C966.431 47.8705 965.802 46.812 965.802 45.4111V33.114C964.863 31.7928 964.393 30.1691 964.393 28.2429C964.393 26.3008 964.863 24.6214 965.802 23.2047H969.455C971.333 23.2047 972.679 23.8096 973.49 25.0194C973.092 25.4651 972.742 26.0302 972.44 26.7147C972.137 27.3992 971.986 27.8927 971.986 28.1951C971.986 28.4817 972.058 28.6966 972.201 28.8398C972.36 28.9831 972.583 29.0548 972.87 29.0548C973.427 26.8421 974.485 25.2184 976.045 24.1837C977.335 23.3081 978.927 22.8704 980.821 22.8704C983.177 22.8704 985.023 23.3718 986.361 24.3747C986.838 25.6482 987.077 27.2082 987.077 29.0548C987.077 30.8854 986.711 32.5489 985.979 34.0452C985.437 34.3318 984.689 34.5785 983.734 34.7855C982.779 34.9765 981.816 35.072 980.845 35.072C979.874 35.072 978.998 35.0083 978.218 34.881C977.454 34.7377 976.897 34.6103 976.547 34.4989C976.419 34.6263 976.356 34.8093 976.356 35.0481C976.356 35.2869 976.507 35.47 976.809 35.5973C977.128 35.7087 977.653 35.8361 978.385 35.9793V47.9661C976.65 49.0644 974.597 49.6136 972.225 49.6136ZM1000.38 36.0032V40.1819C1000.49 40.2933 1000.67 40.349 1000.93 40.349C1001.18 40.349 1001.36 40.2615 1001.48 40.0863C1001.59 39.9112 1001.64 39.6088 1001.64 39.179V35.7644C1001.64 34.2363 1001.58 33.2254 1001.45 32.7319C1001.32 32.2226 1001.09 31.9679 1000.74 31.9679C1000.51 31.9679 1000.32 32.0474 1000.16 32.2066C1000.31 33.7826 1000.38 35.0481 1000.38 36.0032ZM991.447 46.5811C988.836 44.066 987.531 40.6594 987.531 36.3614C987.531 32.0474 988.756 28.6488 991.208 26.1655C993.675 23.6663 996.907 22.4167 1000.9 22.4167C1004.9 22.4167 1008.13 23.7141 1010.6 26.3088C1013.05 28.9035 1014.27 32.2862 1014.27 36.4569C1014.27 40.6117 1013.09 43.9148 1010.72 46.3662C1008.36 48.8177 1005.15 50.0434 1001.09 50.0434C997.034 50.0434 993.818 48.8893 991.447 46.5811ZM1028.43 47.7034C1028.43 51.2214 1027.57 53.8878 1025.83 55.7025C1024.27 57.3103 1022.27 58.1142 1019.81 58.1142C1017.38 58.1142 1015.51 57.5491 1014.2 56.4188C1012.9 55.2886 1012.24 53.7366 1012.24 51.7626C1012.24 51.0463 1012.34 50.3539 1012.53 49.6853C1012.72 49.0326 1012.92 48.5471 1013.13 48.2287C1014.05 48.0218 1015.13 47.9183 1016.35 47.9183C1017.58 47.9183 1018.97 48.1093 1020.53 48.4914C1020.64 48.5391 1020.82 48.563 1021.08 48.563C1021.49 48.563 1021.7 48.2924 1021.7 47.7512C1019.77 47.194 1018.16 46.9154 1016.85 46.9154C1016.18 45.7215 1015.85 44.1456 1015.85 42.1876V26.3327C1016.14 26.1257 1016.45 25.9586 1016.78 25.8312C1017.12 25.7039 1017.47 25.5447 1017.83 25.3537C1017.15 25.0035 1016.53 24.3986 1015.97 23.539C1015.41 22.6634 1015.13 21.6446 1015.13 20.4826C1015.13 18.4768 1015.79 16.8372 1017.12 15.5637C1018.44 14.2902 1020.05 13.6535 1021.96 13.6535C1023.89 13.6535 1025.5 14.3062 1026.79 15.6115C1028.09 16.9009 1028.74 18.5246 1028.74 20.4826C1028.74 22.0585 1028.25 23.4434 1027.26 24.6373C1026.28 25.8153 1025.07 26.5555 1023.66 26.858C1023.66 27.4629 1023.89 27.7653 1024.35 27.7653C1025.16 27.7653 1025.99 27.447 1026.83 26.8102C1026.85 26.8102 1026.88 26.8341 1026.93 26.8819C1026.99 26.9137 1027.17 27.0251 1027.45 27.2162C1027.76 27.4072 1028.08 27.6778 1028.43 28.028V47.7034ZM1044.43 50.0434C1040.02 50.0434 1036.54 48.8177 1034 46.3662C1031.39 43.8989 1030.08 40.5241 1030.08 36.242C1030.08 31.944 1031.43 28.5374 1034.12 26.0223C1036.6 23.6822 1039.74 22.5122 1043.55 22.5122C1047.35 22.5122 1050.4 23.5628 1052.69 25.6641C1055 27.7494 1056.16 30.3203 1056.16 33.3767C1056.16 36.0987 1055.21 38.1522 1053.31 39.5372C1051.56 40.8425 1049.18 41.4951 1046.15 41.4951C1043.89 41.4951 1041.98 41.0255 1040.42 40.0863C1040.29 40.1819 1040.23 40.357 1040.23 40.6117C1040.23 41.0892 1040.86 41.527 1042.12 41.9249C1043.37 42.3547 1044.8 42.5697 1046.39 42.5697C1048 42.5697 1049.45 42.3707 1050.76 41.9727C1052.08 41.5588 1053.14 41.0733 1053.94 40.5161C1054.32 40.8504 1054.62 41.4713 1054.84 42.3786C1055.08 43.2701 1055.2 44.0899 1055.2 44.8381C1055.2 45.5703 1055.13 46.223 1054.99 46.796C1053.74 47.8467 1052.47 48.5948 1051.17 49.0406C1049.32 49.7091 1047.07 50.0434 1044.43 50.0434ZM1044.12 33.8781C1044.92 33.8781 1045.32 33.5756 1045.32 32.9707C1045.32 32.3977 1044.89 32.1111 1044.05 32.1111C1043.21 32.1111 1042.72 32.5648 1042.59 33.4722C1043.04 33.7428 1043.55 33.8781 1044.12 33.8781ZM1070.7 50.0434C1066.56 50.0434 1063.26 48.7699 1060.79 46.223C1058.34 43.6601 1057.11 40.2296 1057.11 35.9316C1057.11 31.6336 1058.5 28.2349 1061.29 25.7357C1063.77 23.5071 1066.88 22.3928 1070.6 22.3928C1073.91 22.3928 1076.66 23.2126 1078.84 24.8522C1081.02 26.4759 1082.11 28.6886 1082.11 31.4903C1082.11 33.4324 1081.51 35.0163 1080.3 36.242C1079.1 37.4518 1077.53 38.0567 1075.57 38.0567C1073.98 38.0567 1072.65 37.6349 1071.58 36.7912C1070.53 35.9316 1069.91 34.8173 1069.72 33.4483C1069.02 33.4483 1068.67 33.703 1068.67 34.2124C1068.67 35.3744 1069.24 36.441 1070.39 37.412C1071.71 38.5582 1073.35 39.1312 1075.31 39.1312C1077.28 39.1312 1078.91 38.7094 1080.2 37.8657C1081 39.0914 1081.39 40.5798 1081.39 42.3309C1081.39 44.3685 1080.52 46.1115 1078.77 47.5601C1076.76 49.2157 1074.07 50.0434 1070.7 50.0434ZM1085.81 34.2124H1087.29C1088.09 34.2124 1088.49 33.9497 1088.49 33.4244C1088.49 33.3607 1088.47 33.2652 1088.44 33.1379H1083.09C1082.74 32.0236 1082.56 30.7819 1082.56 29.4129C1082.56 28.028 1082.67 26.9057 1082.88 26.0461C1083.78 25.4731 1085.03 24.5975 1086.62 23.4196C1087.07 22.3371 1087.65 20.6179 1088.37 18.2619C1088.46 17.9436 1088.57 17.6331 1088.7 17.3307C1089.94 17.0123 1091.36 16.8531 1092.95 16.8531C1094.54 16.8531 1096.11 17.0203 1097.66 17.3546V23.2047H1101.79C1102.71 24.6055 1103.17 26.2531 1103.17 28.1474C1103.17 29.007 1103.05 29.8905 1102.81 30.7978C1102.57 31.7052 1102.23 32.4773 1101.79 33.114H1098.37V36.7196C1098.37 38.7571 1099.22 39.7759 1100.93 39.7759H1101.95C1102.29 40.9857 1102.46 42.0364 1102.46 42.9278C1102.46 45.1246 1101.76 46.812 1100.38 47.9899C1099.01 49.152 1097.01 49.733 1094.38 49.733C1091.77 49.733 1089.69 49.0087 1088.13 47.5601C1086.58 46.0956 1085.81 43.9466 1085.81 41.1131V34.2124Z" fill="white"/>
<rect x="911.742" y="6.52049" width="214.517" height="55.3407" rx="27.6704" stroke="white" stroke-width="1.48337"/>
<path d="M1184.21 33.3122C1184.34 33.4396 1184.54 33.5032 1184.81 33.5032C1185.08 33.5032 1185.31 33.4475 1185.5 33.3361C1185.08 30.9165 1184.81 29.4838 1184.66 29.0381C1184.49 28.5764 1184.23 28.3456 1183.88 28.3456C1183.72 28.3456 1183.52 28.3934 1183.3 28.4889L1184.21 33.3122ZM1179.48 40.4756C1179.32 40.6984 1179.24 40.9054 1179.24 41.0964C1179.24 41.558 1179.67 41.9481 1180.53 42.2664C1181.41 42.5689 1182.47 42.7599 1183.71 42.8395C1183.91 45.1318 1184.14 46.4371 1184.38 46.7555C1184.07 47.3445 1183.24 47.9414 1181.87 48.5463C1180.5 49.1353 1178.96 49.4298 1177.24 49.4298C1174.96 49.4298 1173.01 48.9443 1171.39 47.9732C1169.76 46.9863 1168.95 45.7208 1168.95 44.1767C1168.95 43.7628 1168.99 43.3966 1169.07 43.0783L1174.16 20.3465C1175.43 19.5347 1176.95 18.8979 1178.72 18.4363C1180.48 17.9746 1182.32 17.7438 1184.23 17.7438C1186.97 17.7438 1189.31 18.2054 1191.25 19.1287C1193.47 20.1794 1194.81 21.6996 1195.29 23.6894L1200.73 46.2063C1199.08 48.3553 1196.38 49.4298 1192.64 49.4298C1190.82 49.4298 1189.29 49.1035 1188.03 48.4508C1186.77 47.7981 1186.04 46.8669 1185.83 45.6571L1185.31 42.744C1186.26 42.7281 1187.19 42.545 1188.08 42.1948C1188.97 41.8446 1189.41 41.4785 1189.41 41.0964C1189.41 40.8417 1189.31 40.6348 1189.1 40.4756C1188.5 40.9054 1187.76 41.2317 1186.88 41.4546C1186.01 41.6774 1185.2 41.7889 1184.45 41.7889C1182.3 41.7889 1180.64 41.3511 1179.48 40.4756ZM1212.89 39.2339C1213.05 39.3931 1213.24 39.4727 1213.46 39.4727C1213.81 39.4727 1214.05 39.226 1214.18 38.7325C1214.3 38.2231 1214.37 37.2043 1214.37 35.6761V33.2406C1214.37 32.8108 1214.31 32.5083 1214.2 32.3332C1214.09 32.1581 1213.91 32.0706 1213.65 32.0706C1213.4 32.0706 1213.21 32.1263 1213.1 32.2377V35.4373C1213.1 36.3925 1213.03 37.658 1212.89 39.2339ZM1213.84 19.6779V21.8031C1212.5 21.8826 1211.28 22.0896 1210.16 22.4239C1209.05 22.7423 1208.49 23.1163 1208.49 23.5461C1208.49 23.8008 1208.62 24.0078 1208.88 24.167C1210.63 23.3074 1212.48 22.8776 1214.44 22.8776C1217.94 22.8776 1220.81 24.0874 1223.03 26.507C1225.28 28.9107 1226.4 32.0467 1226.4 35.9149C1226.4 40.595 1225.05 44.1209 1222.34 46.4928C1219.88 48.6577 1216.52 49.7402 1212.27 49.7402C1208.03 49.7402 1204.91 48.9204 1202.91 47.2808C1201.81 46.3734 1201.26 45.1955 1201.26 43.7469V16.5022C1202.02 16.0564 1202.94 15.6903 1204 15.4038C1205.09 15.1172 1206.18 14.974 1207.28 14.974C1209.11 14.974 1210.62 15.3321 1211.81 16.0485C1213.17 16.8922 1213.84 18.102 1213.84 19.6779ZM1240.2 35.7V39.8786C1240.31 39.9901 1240.5 40.0458 1240.75 40.0458C1241.01 40.0458 1241.19 39.9582 1241.3 39.7831C1241.41 39.608 1241.47 39.3056 1241.47 38.8758V35.4612C1241.47 33.933 1241.41 32.9222 1241.28 32.4287C1241.15 31.9193 1240.91 31.6646 1240.56 31.6646C1240.34 31.6646 1240.15 31.7442 1239.99 31.9034C1240.13 33.4794 1240.2 34.7449 1240.2 35.7ZM1231.27 46.2779C1228.66 43.7628 1227.36 40.3562 1227.36 36.0582C1227.36 31.7442 1228.58 28.3456 1231.03 25.8623C1233.5 23.3631 1236.73 22.1135 1240.73 22.1135C1244.72 22.1135 1247.96 23.4108 1250.42 26.0056C1252.87 28.6003 1254.1 31.983 1254.1 36.1537C1254.1 40.3084 1252.91 43.6116 1250.54 46.063C1248.19 48.5145 1244.98 49.7402 1240.92 49.7402C1236.86 49.7402 1233.64 48.5861 1231.27 46.2779ZM1268.38 38.5892C1268.57 38.5892 1268.78 38.5096 1269 38.3504C1268.84 37.8251 1268.76 37.0053 1268.76 35.891V24.0953C1270.45 23.0765 1272.48 22.5671 1274.85 22.5671C1276.19 22.5671 1277.36 22.7502 1278.36 23.1163C1279.38 23.4665 1280.16 23.9361 1280.7 24.5251V36.9655C1280.7 39.3374 1281.27 40.8815 1282.42 41.5978C1282.44 41.6774 1282.44 41.8287 1282.44 42.0515V42.4813C1282.44 44.8054 1281.83 46.5645 1280.6 47.7583C1279.49 48.8727 1277.95 49.4298 1276 49.4298C1274.77 49.4298 1273.66 49.1512 1272.65 48.5941C1271.67 48.0369 1270.93 47.2251 1270.43 46.1585C1269.89 46.1585 1269.62 46.4212 1269.62 46.9465C1269.62 47.3126 1269.8 47.6788 1270.17 48.0449C1269.66 48.4588 1269.05 48.7931 1268.33 49.0478C1267.62 49.3025 1266.56 49.4298 1265.16 49.4298C1263.77 49.4298 1262.42 49.1433 1261.1 48.5702C1259.46 47.8698 1258.2 46.7953 1257.32 45.3467C1256.26 43.6275 1255.72 41.4466 1255.72 38.8041V32.8108C1254.91 31.394 1254.51 29.834 1254.51 28.1307C1254.51 27.2552 1254.62 26.3478 1254.84 25.4086C1255.06 24.4694 1255.42 23.6337 1255.91 22.9014H1261.17C1263.14 22.9014 1264.69 23.371 1265.8 24.3102C1266.93 25.2335 1267.5 26.6423 1267.5 28.5366V36.2731C1267.5 37.8172 1267.79 38.5892 1268.38 38.5892ZM1285.57 33.9092H1287.05C1287.85 33.9092 1288.25 33.6465 1288.25 33.1212C1288.25 33.0575 1288.23 32.962 1288.2 32.8347H1282.85C1282.5 31.7203 1282.32 30.4787 1282.32 29.1097C1282.32 27.7248 1282.43 26.6025 1282.63 25.7429C1283.54 25.1698 1284.79 24.2943 1286.38 23.1163C1286.83 22.0339 1287.41 20.3147 1288.13 17.9587C1288.22 17.6403 1288.33 17.3299 1288.46 17.0275C1289.7 16.7091 1291.12 16.5499 1292.71 16.5499C1294.3 16.5499 1295.87 16.7171 1297.41 17.0513V22.9014H1301.55C1302.47 24.3023 1302.93 25.9499 1302.93 27.8442C1302.93 28.7038 1302.81 29.5873 1302.57 30.4946C1302.33 31.402 1301.99 32.174 1301.55 32.8108H1298.13V36.4163C1298.13 38.4539 1298.98 39.4727 1300.69 39.4727H1301.71C1302.05 40.6825 1302.21 41.7332 1302.21 42.6246C1302.21 44.8214 1301.52 46.5087 1300.14 47.6867C1298.77 48.8488 1296.77 49.4298 1294.14 49.4298C1291.53 49.4298 1289.45 48.7055 1287.89 47.2569C1286.34 45.7924 1285.57 43.6434 1285.57 40.8099V33.9092Z" fill="white"/>
<rect x="1145.74" y="6.21702" width="185.42" height="55.3407" rx="27.6704" stroke="white" stroke-width="1.48337"/>
<path d="M201.783 112.298V272.371C189.759 281.39 174.353 285.899 155.565 285.899C141.071 285.899 129.584 282.946 121.102 277.042C112.191 271.029 107.736 262.333 107.736 250.953V219.067H119.17C123.571 219.067 126.309 218.53 127.383 217.457C128.564 216.276 129.154 214.397 129.154 211.82H78.5875C78.5875 214.397 79.0707 216.276 80.0369 217.457C81.0031 218.53 83.3114 219.067 86.9616 219.067H99.2007V272.371C90.9339 277.739 83.0967 281.336 75.6888 283.161C68.281 284.986 60.7121 285.899 52.9822 285.899C38.4886 285.899 27.001 282.946 18.5196 277.042C9.60872 271.029 5.15328 262.333 5.15328 250.953V90.7182C10.736 84.8134 17.607 80.3043 25.7664 77.1909C34.0331 73.9701 42.6219 72.3596 51.5328 72.3596C64.5234 72.3596 75.5278 75.5805 84.546 82.0221C94.3158 89.3225 99.2007 99.4144 99.2007 112.298V140.963H119.653C119.653 138.171 119.116 136.293 118.042 135.326C117.076 134.253 115.466 133.716 113.211 133.716H107.736V90.7182C113.318 84.8134 120.19 80.3043 128.349 77.1909C136.616 73.9701 145.204 72.3596 154.115 72.3596C167.106 72.3596 178.11 75.5805 187.129 82.0221C196.898 89.3225 201.783 99.4144 201.783 112.298ZM294.703 222.449L286.973 225.831C286.973 233.024 288.369 240.7 291.16 248.86C293.522 256.589 296.797 263.46 300.984 269.473C290.355 280.423 275.593 285.899 256.698 285.899C245.854 285.899 236.46 283.054 228.516 277.364C219.283 270.922 214.666 262.387 214.666 251.758V63.8245C219.82 60.8184 225.993 58.3492 233.186 56.4167C240.486 54.4842 247.841 53.518 255.248 53.518C267.595 53.518 277.794 55.9336 285.846 60.7648C294.972 66.4548 299.534 74.6142 299.534 85.2429V102.313C299.534 116.592 297.011 130.549 291.966 144.184C290.999 145.579 289.282 147.619 286.812 150.303C284.343 152.88 282.357 155.242 280.854 157.389C279.458 159.536 278.76 161.415 278.76 163.025C278.76 164.528 280.049 165.924 282.625 167.212C290.999 159.375 297.548 150.84 302.272 141.607C307.103 132.374 311.505 120.135 315.477 104.89C316.873 104.675 318.483 104.407 320.309 104.085C322.134 103.762 325.14 103.279 329.327 102.635C333.621 101.884 336.627 101.508 338.345 101.508C354.879 101.508 367.762 105.319 376.995 112.942C386.228 120.457 390.844 130.817 390.844 144.022C390.844 157.228 386.657 168.554 378.283 178.002C370.553 186.483 360.515 192.871 348.169 197.166C358.046 202.963 370.499 207.096 385.53 209.566C391.327 220.087 394.226 231.306 394.226 243.223C394.226 255.033 390.468 264.91 382.953 272.854C374.579 281.551 362.984 285.899 348.169 285.899C333.46 285.899 321.329 280.262 311.773 268.99C302.326 257.609 296.636 242.096 294.703 222.449ZM489.24 212.787C490.528 212.787 491.924 212.25 493.427 211.176C492.353 207.633 491.816 202.104 491.816 194.589V115.035C503.196 108.164 516.885 104.729 532.881 104.729C541.9 104.729 549.791 105.963 556.554 108.433C563.425 110.795 568.686 113.962 572.336 117.934V201.836C572.336 217.832 576.201 228.246 583.931 233.078C584.038 233.614 584.092 234.634 584.092 236.137V239.036C584.092 254.711 579.959 266.574 571.692 274.626C564.177 282.141 553.817 285.899 540.611 285.899C532.345 285.899 524.829 284.02 518.066 280.262C511.409 276.505 506.417 271.029 503.089 263.836C499.439 263.836 497.614 265.608 497.614 269.151C497.614 271.62 498.848 274.089 501.318 276.558C497.882 279.35 493.749 281.604 488.918 283.322C484.086 285.04 476.947 285.899 467.499 285.899C458.159 285.899 449.033 283.966 440.122 280.101C429.064 275.377 420.583 268.131 414.678 258.361C407.485 246.766 403.888 232.058 403.888 214.236V173.815C398.413 164.26 395.675 153.739 395.675 142.251C395.675 136.346 396.427 130.227 397.93 123.892C399.433 117.558 401.849 111.922 405.177 106.983H440.606C453.918 106.983 464.332 110.15 471.847 116.485C479.47 122.711 483.281 132.213 483.281 144.989V197.166C483.281 207.58 485.267 212.787 489.24 212.787ZM761.719 203.285C761.719 211.015 762.578 217.242 764.296 221.966C766.014 226.69 769.02 230.394 773.314 233.078C773.422 233.614 773.475 234.634 773.475 236.137V239.036C773.475 253.852 769.181 265.393 760.592 273.66C752.111 281.819 741.106 285.899 727.579 285.899C714.159 285.899 703.262 282.087 694.888 274.465C685.118 265.769 680.233 252.563 680.233 234.849C680.233 227.334 680.555 220.731 681.199 215.041C681.951 209.244 682.434 205.11 682.649 202.641C682.971 200.172 683.293 197.864 683.615 195.716C683.937 193.569 684.098 190.402 684.098 186.215C684.098 182.028 683.508 179.022 682.327 177.197C681.253 175.372 679.696 174.459 677.656 174.459C675.724 174.459 674.006 174.888 672.503 175.747L674.597 201.997C672.664 212.84 671.698 224.328 671.698 236.459C671.698 248.591 674.436 259.649 679.911 269.634C669.39 280.477 654.628 285.899 635.625 285.899C624.782 285.899 615.388 283.054 607.443 277.364C598.21 270.922 593.594 262.387 593.594 251.758V173.815C587.259 164.904 584.092 153.953 584.092 140.963C584.092 127.865 587.259 116.538 593.594 106.983H622.259C629.881 106.983 636.376 109.828 641.744 115.518C637.021 119.92 634.659 123.57 634.659 126.469C634.659 129.797 636.538 131.461 640.295 131.461C645.019 123.302 652.212 116.538 661.874 111.17C671.644 105.802 682.702 103.118 695.049 103.118C713.622 103.118 728.706 107.681 740.301 116.807C754.902 128.294 762.202 146.116 762.202 170.272L761.719 203.285ZM950.458 203.285C950.458 211.015 951.317 217.242 953.035 221.966C954.753 226.69 957.759 230.394 962.053 233.078C962.16 233.614 962.214 234.634 962.214 236.137V239.036C962.214 253.852 957.92 265.393 949.331 273.66C940.849 281.819 929.845 285.899 916.318 285.899C902.898 285.899 892.001 282.087 883.627 274.465C873.857 265.769 868.972 252.563 868.972 234.849C868.972 227.334 869.294 220.731 869.938 215.041C870.69 209.244 871.173 205.11 871.388 202.641C871.71 200.172 872.032 197.864 872.354 195.716C872.676 193.569 872.837 190.402 872.837 186.215C872.837 182.028 872.246 179.022 871.065 177.197C869.992 175.372 868.435 174.459 866.395 174.459C864.463 174.459 862.745 174.888 861.242 175.747L863.336 201.997C861.403 212.84 860.437 224.328 860.437 236.459C860.437 248.591 863.174 259.649 868.65 269.634C858.129 280.477 843.367 285.899 824.364 285.899C813.52 285.899 804.126 283.054 796.182 277.364C786.949 270.922 782.332 262.387 782.332 251.758V173.815C775.998 164.904 772.831 153.953 772.831 140.963C772.831 127.865 775.998 116.538 782.332 106.983H810.998C818.62 106.983 825.115 109.828 830.483 115.518C825.76 119.92 823.398 123.57 823.398 126.469C823.398 129.797 825.276 131.461 829.034 131.461C833.758 123.302 840.951 116.538 850.613 111.17C860.383 105.802 871.441 103.118 883.788 103.118C902.361 103.118 917.445 107.681 929.04 116.807C943.641 128.294 950.941 146.116 950.941 170.272L950.458 203.285ZM1139.2 203.285C1139.2 211.015 1140.06 217.242 1141.77 221.966C1143.49 226.69 1146.5 230.394 1150.79 233.078C1150.9 233.614 1150.95 234.634 1150.95 236.137V239.036C1150.95 253.852 1146.66 265.393 1138.07 273.66C1129.59 281.819 1118.58 285.899 1105.06 285.899C1091.64 285.899 1080.74 282.087 1072.37 274.465C1062.6 265.769 1057.71 252.563 1057.71 234.849C1057.71 227.334 1058.03 220.731 1058.68 215.041C1059.43 209.244 1059.91 205.11 1060.13 202.641C1060.45 200.172 1060.77 197.864 1061.09 195.716C1061.41 193.569 1061.58 190.402 1061.58 186.215C1061.58 182.028 1060.99 179.022 1059.8 177.197C1058.73 175.372 1057.17 174.459 1055.13 174.459C1053.2 174.459 1051.48 174.888 1049.98 175.747L1052.07 201.997C1050.14 212.84 1049.18 224.328 1049.18 236.459C1049.18 248.591 1051.91 259.649 1057.39 269.634C1046.87 280.477 1032.11 285.899 1013.1 285.899C1002.26 285.899 992.865 283.054 984.921 277.364C975.688 270.922 971.071 262.387 971.071 251.758V173.815C964.737 164.904 961.57 153.953 961.57 140.963C961.57 127.865 964.737 116.538 971.071 106.983H999.736C1007.36 106.983 1013.85 109.828 1019.22 115.518C1014.5 119.92 1012.14 123.57 1012.14 126.469C1012.14 129.797 1014.02 131.461 1017.77 131.461C1022.5 123.302 1029.69 116.538 1039.35 111.17C1049.12 105.802 1060.18 103.118 1072.53 103.118C1091.1 103.118 1106.18 107.681 1117.78 116.807C1132.38 128.294 1139.68 146.116 1139.68 170.272L1139.2 203.285ZM1319.4 203.285C1319.4 211.015 1320.26 217.242 1321.98 221.966C1323.7 226.69 1326.7 230.394 1331 233.078C1331.1 233.614 1331.16 234.634 1331.16 236.137V239.036C1331.16 254.281 1326.54 266.144 1317.31 274.626C1309.15 282.141 1299.06 285.899 1287.03 285.899C1278.87 285.899 1271.41 283.966 1264.65 280.101C1257.88 276.236 1253.05 270.654 1250.15 263.353C1246.5 263.353 1244.68 265.125 1244.68 268.667C1244.68 271.674 1246.56 275.055 1250.31 278.813C1243.34 283.537 1232.82 285.899 1218.75 285.899C1198.89 285.899 1183 280.531 1171.08 269.795C1159.27 258.951 1153.37 243.867 1153.37 224.542C1153.37 205.11 1159.65 190.08 1172.21 179.451C1183.7 169.896 1198.57 165.119 1216.82 165.119C1223.05 165.119 1229.06 165.548 1234.85 166.407C1238.72 167.159 1240.81 167.588 1241.14 167.695C1241.46 166.622 1241.62 165.709 1241.62 164.958C1241.62 162.166 1239.26 160.288 1234.53 159.321C1229.81 158.355 1223.64 157.872 1216.01 157.872C1199.8 157.872 1185.95 161.146 1174.46 167.695C1169.2 158.784 1166.57 147.512 1166.57 133.877C1166.57 126.147 1167.54 120.403 1169.47 116.646C1177.2 113.103 1187.03 109.989 1198.94 107.305C1210.86 104.514 1223.42 103.118 1236.63 103.118C1263.9 103.118 1284.51 109.077 1298.47 120.994C1312.42 132.911 1319.4 149.82 1319.4 171.721V203.285ZM1235.82 211.176C1231.31 211.176 1229.06 213.216 1229.06 217.296C1229.06 221.161 1231.69 223.093 1236.95 223.093C1240.6 223.093 1243.28 222.234 1245 220.516C1246.72 218.691 1247.58 215.578 1247.58 211.176C1247.58 211.176 1243.66 211.176 1235.82 211.176Z" fill="white"/>
<path d="M29.5356 1.03573C30.7793 0.75535 34.3255 2.091 37.8032 6.25448C45.2913 15.2193 42.3433 23.5474 46.2778 23.5474C50.2122 23.5474 51.4652 18.8268 52.5483 18.7467C53.6332 18.6693 62.9827 29.9171 61.4643 43.6314C60.2028 55.0252 47.791 61.7066 33.1499 61.7066C14.9789 61.7066 3.52528 54.6858 2.26412 43.6314C0.794423 30.7482 5.52114 27.0737 14.8774 14.3375C15.3153 13.7414 16.8375 13.7012 18.0131 18.4039C18.4082 19.9845 18.7056 23.361 22.5561 22.2789C26.4066 21.1952 28.2921 1.31629 29.5356 1.03573ZM41.1088 32.7359C39.4316 32.7359 38.072 34.0958 38.0717 35.773V47.3346C38.072 49.0117 39.4316 50.3717 41.1088 50.3717C42.7859 50.3715 44.1457 49.0116 44.146 47.3346V35.773C44.1457 34.096 42.7859 32.7361 41.1088 32.7359ZM22.6899 32.6471C21.0126 32.6471 19.6528 34.0068 19.6528 35.6842V47.2447C19.6529 48.922 21.0126 50.2818 22.6899 50.2818C24.3672 50.2818 25.7269 48.922 25.727 47.2447V35.6842C25.727 34.0068 24.3673 32.6471 22.6899 32.6471Z" fill="white"/>
</svg>
