<svg width="1034" height="182" viewBox="0 0 1034 182" fill="none" xmlns="http://www.w3.org/2000/svg">
<path d="M1023.97 116.688C1023.97 122.711 1024.64 127.562 1025.98 131.243C1027.32 134.923 1029.66 137.809 1033 139.9C1033.09 140.319 1033.13 141.113 1033.13 142.284V144.543C1033.13 156.421 1029.53 165.664 1022.34 172.272C1015.98 178.127 1008.12 181.055 998.75 181.055C992.393 181.055 986.58 179.549 981.31 176.538C976.04 173.527 972.276 169.177 970.017 163.489C967.173 163.489 965.751 164.869 965.751 167.629C965.751 169.972 967.215 172.606 970.143 175.534C964.706 179.215 956.508 181.055 945.551 181.055C930.076 181.055 917.696 176.872 908.411 168.508C899.21 160.059 894.609 148.307 894.609 133.25C894.609 118.11 899.503 106.4 909.289 98.1184C918.24 90.6738 929.825 86.9515 944.045 86.9515C948.896 86.9515 953.581 87.2861 958.098 87.9553C961.109 88.5408 962.74 88.8754 962.991 88.959C963.242 88.1226 963.367 87.4116 963.367 86.826C963.367 84.6512 961.527 83.1874 957.847 82.4345C954.166 81.6817 949.357 81.3053 943.418 81.3053C930.787 81.3053 919.996 83.8565 911.046 88.959C906.947 82.0163 904.898 73.2333 904.898 62.6101C904.898 56.5875 905.651 52.1124 907.156 49.1847C913.179 46.4243 920.833 43.9986 930.118 41.9074C939.403 39.7326 949.189 38.6451 959.478 38.6451C980.724 38.6451 996.785 43.2876 1007.66 52.5724C1018.53 61.8573 1023.97 75.0317 1023.97 92.0958V116.688ZM958.851 122.836C955.337 122.836 953.581 124.426 953.581 127.604C953.581 130.615 955.63 132.121 959.729 132.121C962.573 132.121 964.664 131.452 966.002 130.114C967.341 128.692 968.01 126.266 968.01 122.836C968.01 122.836 964.957 122.836 958.851 122.836Z" fill="white"/>
<path d="M883.567 116.688C883.567 122.711 884.237 127.562 885.575 131.243C886.913 134.923 889.255 137.809 892.601 139.9C892.685 140.319 892.727 141.113 892.727 142.284V144.543C892.727 156.086 889.381 165.078 882.689 171.519C876.081 177.876 867.507 181.055 856.968 181.055C846.512 181.055 838.021 178.085 831.497 172.146C823.885 165.371 820.079 155.082 820.079 141.28C820.079 135.425 820.33 130.281 820.832 125.848C821.417 121.331 821.794 118.11 821.961 116.186C822.212 114.262 822.463 112.464 822.714 110.791C822.965 109.118 823.09 106.65 823.09 103.388C823.09 100.126 822.63 97.7838 821.71 96.3618C820.874 94.9398 819.661 94.2288 818.072 94.2288C816.566 94.2288 815.228 94.5634 814.056 95.2326L815.688 115.684C814.182 124.133 813.429 133.083 813.429 142.535C813.429 151.987 815.562 160.603 819.828 168.382C811.631 176.831 800.129 181.055 785.324 181.055C776.875 181.055 769.556 178.838 763.366 174.405C756.172 169.386 752.576 162.736 752.576 154.455V93.7269C747.64 86.7842 745.173 78.2522 745.173 68.1308C745.173 57.9259 747.64 49.1011 752.576 41.6564H774.909C780.848 41.6564 785.909 43.8731 790.091 48.3064C786.411 51.736 784.571 54.58 784.571 56.8384C784.571 59.4315 786.035 60.728 788.962 60.728C792.643 54.3708 798.247 49.1011 805.775 44.9187C813.387 40.7363 822.003 38.6451 831.622 38.6451C846.093 38.6451 857.846 42.2002 866.88 49.3102C878.256 58.2604 883.944 72.1459 883.944 90.9666L883.567 116.688Z" fill="white"/>
<path d="M736.516 116.688C736.516 122.711 737.185 127.562 738.523 131.243C739.862 134.923 742.204 137.809 745.55 139.9C745.633 140.319 745.675 141.113 745.675 142.284V144.543C745.675 156.086 742.329 165.078 735.637 171.519C729.029 177.876 720.455 181.055 709.916 181.055C699.46 181.055 690.97 178.085 684.445 172.146C676.833 165.371 673.027 155.082 673.027 141.28C673.027 135.425 673.278 130.281 673.78 125.848C674.366 121.331 674.742 118.11 674.909 116.186C675.16 114.262 675.411 112.464 675.662 110.791C675.913 109.118 676.039 106.65 676.039 103.388C676.039 100.126 675.579 97.7838 674.658 96.3618C673.822 94.9398 672.609 94.2288 671.02 94.2288C669.514 94.2288 668.176 94.5634 667.005 95.2326L668.636 115.684C667.13 124.133 666.377 133.083 666.377 142.535C666.377 151.987 668.51 160.603 672.776 168.382C664.579 176.831 653.077 181.055 638.272 181.055C629.823 181.055 622.504 178.838 616.314 174.405C609.121 169.386 605.524 162.736 605.524 154.455V93.7269C600.589 86.7842 598.121 78.2522 598.121 68.1308C598.121 57.9259 600.589 49.1011 605.524 41.6564H627.858C633.797 41.6564 638.857 43.8731 643.04 48.3064C639.359 51.736 637.519 54.58 637.519 56.8384C637.519 59.4315 638.983 60.728 641.91 60.728C645.591 54.3708 651.195 49.1011 658.724 44.9187C666.335 40.7363 674.951 38.6451 684.571 38.6451C699.042 38.6451 710.794 42.2002 719.828 49.3102C731.204 58.2604 736.892 72.1459 736.892 90.9666L736.516 116.688Z" fill="white"/>
<path d="M589.463 116.688C589.463 122.711 590.132 127.562 591.47 131.243C592.809 134.923 595.151 137.809 598.497 139.9C598.581 140.319 598.622 141.113 598.622 142.284V144.543C598.622 156.086 595.276 165.078 588.585 171.519C581.976 177.876 573.403 181.055 562.863 181.055C552.407 181.055 543.917 178.085 537.392 172.146C529.781 165.371 525.975 155.082 525.975 141.28C525.975 135.425 526.226 130.281 526.727 125.848C527.313 121.331 527.689 118.11 527.857 116.186C528.108 114.262 528.359 112.464 528.609 110.791C528.86 109.118 528.986 106.65 528.986 103.388C528.986 100.126 528.526 97.7838 527.606 96.3618C526.769 94.9398 525.556 94.2288 523.967 94.2288C522.461 94.2288 521.123 94.5634 519.952 95.2326L521.583 115.684C520.077 124.133 519.325 133.083 519.325 142.535C519.325 151.987 521.458 160.603 525.724 168.382C517.526 176.831 506.025 181.055 491.219 181.055C482.771 181.055 475.452 178.838 469.262 174.405C462.068 169.386 458.471 162.736 458.471 154.455V93.7269C453.536 86.7842 451.068 78.2522 451.068 68.1308C451.068 57.9259 453.536 49.1011 458.471 41.6564H480.805C486.744 41.6564 491.805 43.8731 495.987 48.3064C492.307 51.736 490.466 54.58 490.466 56.8384C490.466 59.4315 491.93 60.728 494.858 60.728C498.538 54.3708 504.143 49.1011 511.671 44.9187C519.283 40.7363 527.898 38.6451 537.518 38.6451C551.989 38.6451 563.741 42.2002 572.775 49.3102C584.151 58.2604 589.839 72.1459 589.839 90.9666L589.463 116.688Z" fill="white"/>
<path d="M377.166 124.091C378.17 124.091 379.257 123.673 380.428 122.836C379.592 120.076 379.174 115.768 379.174 109.913V47.9299C388.04 42.5765 398.705 39.8998 411.169 39.8998C418.195 39.8998 424.343 40.8617 429.613 42.7856C434.967 44.6259 439.065 47.0934 441.909 50.1884V115.559C441.909 128.022 444.921 136.136 450.943 139.9C451.027 140.318 451.069 141.113 451.069 142.284V144.543C451.069 156.755 447.848 165.998 441.407 172.272C435.552 178.127 427.48 181.055 417.192 181.055C410.751 181.055 404.895 179.591 399.626 176.663C394.439 173.736 390.55 169.47 387.957 163.865C385.113 163.865 383.691 165.245 383.691 168.006C383.691 169.93 384.653 171.853 386.577 173.777C383.9 175.952 380.679 177.709 376.915 179.047C373.151 180.386 367.589 181.055 360.228 181.055C352.95 181.055 345.84 179.549 338.898 176.538C330.282 172.857 323.674 167.211 319.073 159.599C313.469 150.565 310.667 139.106 310.667 125.22V93.7269C306.401 86.2822 304.268 78.0848 304.268 69.1345C304.268 64.5339 304.853 59.766 306.024 54.8308C307.195 49.8956 309.077 45.5042 311.67 41.6564H339.274C349.646 41.6564 357.76 44.124 363.615 49.0592C369.554 53.9107 372.524 61.3135 372.524 71.2675V111.92C372.524 120.034 374.071 124.091 377.166 124.091Z" fill="white"/>
<path d="M225.597 131.619L219.575 134.254C219.575 139.858 220.662 145.839 222.837 152.196C224.677 158.219 227.229 163.572 230.491 168.257C222.21 176.789 210.708 181.055 195.986 181.055C187.538 181.055 180.219 178.838 174.029 174.405C166.835 169.386 163.238 162.736 163.238 154.455V8.03015C167.253 5.68803 172.063 3.76413 177.667 2.25848C183.355 0.752824 189.085 0 194.857 0C204.476 0 212.423 1.88206 218.696 5.64619C225.807 10.0795 229.362 16.4367 229.362 24.7178V38.0177C229.362 49.1428 227.396 60.017 223.464 70.6402C222.712 71.7276 221.373 73.3169 219.449 75.4081C217.525 77.4156 215.978 79.2559 214.807 80.9288C213.719 82.6018 213.176 84.0656 213.176 85.3203C213.176 86.4914 214.18 87.5788 216.187 88.5826C222.712 82.4763 227.814 75.8263 231.495 68.6327C235.259 61.439 238.688 51.9032 241.783 40.0253C242.871 39.858 244.125 39.6489 245.547 39.3979C246.969 39.147 249.311 38.7706 252.574 38.2687C255.92 37.6831 258.262 37.3904 259.6 37.3904C272.482 37.3904 282.519 40.3599 289.713 46.2988C296.907 52.1541 300.504 60.2261 300.504 70.5147C300.504 80.8034 297.241 89.6282 290.717 96.9891C284.694 103.597 276.873 108.574 267.254 111.92C274.949 116.437 284.652 119.658 296.363 121.581C300.88 129.779 303.138 138.52 303.138 147.805C303.138 157.006 300.211 164.702 294.356 170.892C287.831 177.667 278.797 181.055 267.254 181.055C255.794 181.055 246.342 176.663 238.897 167.88C231.536 159.014 227.103 146.927 225.597 131.619Z" fill="white"/>
<path d="M153.2 45.797V170.515C143.832 177.542 131.828 181.055 117.19 181.055C105.898 181.055 96.9473 178.754 90.3391 174.154C83.3964 169.47 79.925 162.694 79.925 153.828V128.984H88.8335C92.263 128.984 94.396 128.566 95.2325 127.73C96.1526 126.809 96.6127 125.346 96.6127 123.338H57.2148C57.2148 125.346 57.5912 126.809 58.344 127.73C59.0969 128.566 60.8953 128.984 63.7393 128.984H73.2751V170.515C66.8342 174.698 60.728 177.5 54.9563 178.922C49.1846 180.344 43.2875 181.055 37.2649 181.055C25.9725 181.055 17.0222 178.754 10.4141 174.154C3.47137 169.47 0 162.694 0 153.828V28.9839C4.34966 24.3833 9.70309 20.8701 16.0603 18.4443C22.5011 15.9349 29.1929 14.6802 36.1357 14.6802C46.257 14.6802 54.8308 17.1896 61.8572 22.2084C69.4691 27.8965 73.2751 35.7593 73.2751 45.797V68.1308H89.2099C89.2099 65.956 88.7917 64.4922 87.9552 63.7393C87.2024 62.9029 85.9477 62.4846 84.1911 62.4846H79.925V28.9839C84.2747 24.3833 89.6281 20.8701 95.9853 18.4443C102.426 15.9349 109.118 14.6802 116.061 14.6802C126.182 14.6802 134.756 17.1896 141.782 22.2084C149.394 27.8965 153.2 35.7593 153.2 45.797Z" fill="white"/>
</svg>
